<svg data-name="Layer" xmlns="http://www.w3.org/2000/svg" viewBox="0 0 500 196.48"><path style="fill:#fff" d="M38.48 46.42V84.9H0v53.85h38.48v38.47l53.85-130.8H38.48zM106.83 85.16c0 .15 0 .3-.08.45l.5-.71H92.33V46.42l-53.85 130.8h53.85v-6.58a104.2 104.2 0 0 1-3.57-27.14 101.58 101.58 0 0 1 18.07-58.34z"/><path d="m131.68 63.22-.15 14.1s6.54 2.09 10.57 5.49c6 5.06 11.12 12.44 18.17 15.36 2.13 16.78-16.18 25.15-29 26.06l-.32 5.23a19 19 0 0 0 5.29 14.47c14.24 14.64 24.41 32.43 20.07 52.55 27.12-28.93 24.63-82 3-126l3.89-6.93c8.88-.62 19.64 3.94 27.82.86a18.67 18.67 0 0 0 10.89-10.06 22.9 22.9 0 0 0 1.4-12.06c-9.73-4.05-16.78-11-25.09-18-4.13-3.48-12-7.69-19.69-9.63a72.89 72.89 0 0 0 5.23-13.46s-17.17-2.76-21.89 0c-4.54 2.65-10 14.51-12.72 21.19-2.51 3.31-4.48 7.4-7 12-7 12.71-11.89 31.12-15.32 50.75 0 .15 0 .3-.08.45 5.57-8.03 14.38-17.59 24.93-22.37zM205 163.14h-1.4v-4.7h-5.92v4.7h-1.39v-10.38h1.39v4.37h5.92v-4.37h1.4zM224 158a5.47 5.47 0 1 1-5.47-5.42A5.39 5.39 0 0 1 224 158zm-9.51 0a4 4 0 1 0 4-4.06 3.95 3.95 0 0 0-4.04 4.06zM237.05 153.43v1.44a4.13 4.13 0 0 0-2.4-.9c-.94 0-2.15.48-2.15 1.59 0 .84.68 1.18 1.53 1.57l1.43.65c1.42.65 2.15 1.33 2.15 2.63 0 1.69-1.66 2.88-3.56 2.88a5.24 5.24 0 0 1-3-1v-1.45a5.43 5.43 0 0 0 3.15 1.09c1 0 2-.54 2-1.46s-.86-1.21-1.49-1.48l-1.72-.78a2.68 2.68 0 0 1-1.92-2.69 3.22 3.22 0 0 1 3.44-2.92 4.3 4.3 0 0 1 2.54.83zM249.78 152.76a3.55 3.55 0 0 1 3.61 3.5 3.62 3.62 0 0 1-3.85 3.33 6.17 6.17 0 0 1-2.5-.51v4.06h-1.4v-10.38zm2.18 3.5a2.38 2.38 0 0 0-2.57-2.18H247v3.73a7 7 0 0 0 2.46.46c1.6 0 2.54-.85 2.54-2.01zM264.56 161.82h1.75v1.32h-4.89v-1.32h1.75v-7.74h-1.75v-1.32h4.89v1.32h-1.75zM279 154.08v9h-1.39v-9H274v-1.32h8.55v1.32zM290.27 160.66l-1.1 2.48h-1.67l4.84-10.38h.7l4.85 10.38h-1.67l-1.09-2.48zm2.45-5.55-1.88 4.23h3.72zM312.41 161.82v1.32h-7.11v-10.38h1.39v9.06zM334.2 163.14l-4.85-10.38H331l3.5 8 3.54-8h1.67l-4.84 10.38zM348.55 157.16h5.05v1.31h-5.05v3.35h5.72v1.32h-7.11v-10.38h7.11v1.32h-5.72zM366.49 154.08v9h-1.39v-9h-3.58v-1.32h8.55v1.32zM379.17 157.16h5.05v1.31h-5.05v3.35h5.71v1.32h-7.11v-10.38h7.11v1.32h-5.71zM394.77 158.77v4.37h-1.39v-10.38h4c1.78 0 3.61 1 3.61 3.11 0 1.94-1.89 3-3.69 3h-.51l5.07 4.32h-2.16zm0-1.36a9.42 9.42 0 0 0 2.31.29c1.57 0 2.46-.71 2.46-1.83s-1.08-1.79-2.41-1.79h-2.36zM412.39 161.82h1.75v1.32h-4.89v-1.32H411v-7.74h-1.75v-1.32h4.89v1.32h-1.75zM431.2 163.14l-6.71-7.42v7.42h-1.39v-10.38h.56l6.7 7.51v-7.51h1.4v10.38zM441.94 160.66l-1.1 2.48h-1.67l4.83-10.38h.69l4.85 10.38h-1.67l-1.08-2.48zm2.45-5.55-1.88 4.23h3.72zm-.82-3.67 1.7-2.09H447l-2.2 2.09zM458.37 158.77v4.37H457v-10.38h4c1.78 0 3.61 1 3.61 3.11 0 1.94-1.89 3-3.68 3h-.52l5.07 4.32h-2.14zm0-1.36a9.34 9.34 0 0 0 2.3.29c1.57 0 2.47-.71 2.47-1.83s-1.09-1.79-2.42-1.79h-2.35zM476 161.82h1.75v1.32h-4.89v-1.32h1.75v-7.74h-1.75v-1.32h4.89v1.32H476zM496.08 158a5.47 5.47 0 1 1-5.47-5.42 5.39 5.39 0 0 1 5.47 5.42zm-9.51 0a4 4 0 1 0 4-4.06 3.95 3.95 0 0 0-4 4.06zM213.3 96.54c7.25 0 14.66 5.1 14.66 13.59 0 8.32-6.6 13.21-13.59 13.21a14 14 0 0 1-6.44-1.45v10.63h-10v-36zm4.35 13.59c0-3-2.36-4.19-5.53-4.19h-4.19v8.32a12.38 12.38 0 0 0 4.19.75c3.17-.01 5.53-2.31 5.53-4.88zM250 110.56h14.28v7.51H250v5.86h16.16v8.59H239.9v-36h26.21v8.32H250zM297.87 105.4v27h-10v-27h-10.62v-8.86h31.2v8.86zM374.7 132.52h-10v-12.89h-12.93v12.89h-10v-36h10v14.23h12.89V96.54h10zM399.91 110.56h14.29v7.51h-14.29v5.86h16.17v8.59h-26.21v-36h26.21v8.32h-16.17zM456.91 123.66v8.86H430.7v-36h10v27.12zM485.34 96.54c7.25 0 14.66 5.1 14.66 13.59 0 8.32-6.61 13.21-13.59 13.21a14 14 0 0 1-6.44-1.45v10.63h-10v-36zm4.35 13.59c0-3-2.36-4.19-5.53-4.19H480v8.32a12.38 12.38 0 0 0 4.19.75c3.14-.01 5.5-2.31 5.5-4.88z" style="fill:#fff"/></svg>